<svg width="171" height="142" viewBox="0 0 171 142" fill="none" xmlns="http://www.w3.org/2000/svg">
<path opacity="0.15" d="M109.935 141.959H60.347L23.0353 0.759766H147.178L109.935 141.959Z" fill="url(#paint0_linear_581_2142)"/>
<path opacity="0.15" d="M117.107 141.96H53.1742L0 0.760254H170.213L117.107 141.96Z" fill="url(#paint1_linear_581_2142)"/>
<path d="M111.263 86.4987C110.972 85.4139 110.622 84.3292 110.213 83.3048C109.863 82.5214 109.513 81.6777 109.104 80.9546C108.754 80.2917 108.345 79.6288 107.879 79.0262C107.47 78.4236 107.003 77.8812 106.536 77.3389C106.361 77.1581 106.186 76.917 106.011 76.7362L102.51 73C102.685 73.1808 102.86 73.4218 103.035 73.6026C103.502 74.145 103.969 74.6873 104.377 75.29C104.844 75.8926 105.252 76.5554 105.603 77.2183C106.011 78.0017 106.42 78.7851 106.711 79.5685C107.12 80.593 107.47 81.6777 107.762 82.7624C108.637 86.2576 108.754 90.0541 107.995 94.0916C107.82 95.1161 107.587 96.0803 107.295 97.0445C106.945 98.2497 106.536 99.3947 106.011 100.54C105.603 101.444 105.194 102.287 104.727 103.131C104.319 103.914 103.852 104.637 103.385 105.361C102.918 106.023 102.451 106.686 101.984 107.349C101.517 107.952 100.992 108.554 100.467 109.157C99.9417 109.76 99.3581 110.302 98.8329 110.844C98.2493 111.387 97.6657 111.929 97.0237 112.471C96.3817 113.014 95.6814 113.556 94.9811 114.038C94.1641 114.581 93.4054 115.123 92.53 115.545C91.4795 116.147 90.4291 116.63 89.3786 117.112C85.7019 118.618 81.7335 119.402 77.765 119.221C71.7539 118.92 66.6767 116.389 63 112.532L66.5016 116.268C70.1199 120.185 75.2555 122.656 81.2666 122.957C85.235 123.198 89.2035 122.415 92.8802 120.848C93.9307 120.426 94.9811 119.884 96.0316 119.281C96.8486 118.799 97.6657 118.317 98.4827 117.775C99.183 117.292 99.8833 116.75 100.525 116.208C101.167 115.665 101.751 115.183 102.334 114.581C102.918 114.038 103.443 113.496 103.969 112.893C104.494 112.291 105.019 111.688 105.486 111.085C106.011 110.423 106.478 109.76 106.887 109.097C107.353 108.374 107.82 107.651 108.229 106.867C108.696 106.023 109.104 105.18 109.513 104.276C109.98 103.131 110.446 101.986 110.797 100.781C111.088 99.8165 111.322 98.8523 111.497 97.8279C112.256 93.8506 112.139 89.9938 111.263 86.4987Z" fill="url(#paint2_linear_581_2142)"/>
<path d="M87.7493 66.0888C101.777 66.873 110.934 79.2993 108.117 93.9575C105.299 108.555 91.6819 119.836 77.6537 119.051C63.6255 118.267 54.469 105.841 57.2864 91.1827C60.0451 76.5848 73.6624 65.3046 87.7493 66.0888Z" fill="url(#paint3_linear_581_2142)"/>
<path d="M87.1624 69.1046C99.6058 69.7681 107.647 80.807 105.182 93.7159C102.717 106.625 90.6254 116.578 78.2407 115.914C65.7973 115.251 57.7561 104.212 60.2213 91.303C62.6278 78.3941 74.719 68.441 87.1624 69.1046Z" fill="url(#paint4_linear_581_2142)"/>
<path d="M68.3799 97.0941L69.4364 98.2402L66.3255 98.1195L65.2103 96.9131L68.3799 97.0941Z" fill="#864A4A"/>
<path d="M69.5538 90.8203L70.6103 92.0267L69.4364 98.2399L68.3799 97.0938L69.5538 90.8203Z" fill="#864A4A"/>
<path d="M70.082 85.3315L71.1972 86.4777L74.9537 93.0527L73.8972 91.8463L70.082 85.3315Z" fill="#864A4A"/>
<path d="M75.9516 97.5161L77.0668 98.6623L74.4255 98.5416L73.3103 97.3955L75.9516 97.5161Z" fill="#864A4A"/>
<path d="M78.182 85.7534L79.2972 86.9599L77.0668 98.6623L75.9516 97.5162L78.182 85.7534Z" fill="#864A4A"/>
<path d="M78.182 85.7538L75.9516 97.5166L73.3103 97.3959L69.5538 90.8209L68.3799 97.0943L65.2104 96.9134L67.4995 85.2109L70.0821 85.3316L73.8973 91.8463L75.0712 85.6332L78.182 85.7538Z" fill="url(#paint5_linear_581_2142)"/>
<path d="M89.2754 86.3564L88.8058 88.9503L83.1711 88.6487L82.6428 91.2425L83.758 92.3886L84.2276 89.7948L89.8624 90.0964L90.3906 87.5629L89.2754 86.3564Z" fill="#864A4A"/>
<path d="M87.1624 94.0174L82.1733 93.7761L81.4102 97.8177L78.182 97.6367L79.2972 98.7828L82.4668 98.9638L83.2298 94.9222L88.2189 95.2238L88.6885 92.63L87.6319 91.4839L87.1624 94.0174Z" fill="#864A4A"/>
<path d="M89.2754 86.3566L88.8058 88.9504L83.1711 88.6488L82.6428 91.2427L87.6319 91.4839L87.1624 94.0175L82.1733 93.7762L81.4102 97.8177L78.182 97.6368L80.4711 85.874L89.2754 86.3566Z" fill="url(#paint6_linear_581_2142)"/>
<path d="M92.7385 89.1917L89.2754 89.0107L90.3906 90.2172L93.8537 90.3981L92.7385 89.1917Z" fill="#864A4A"/>
<path d="M99.8993 86.96L99.3711 89.5538L95.9668 89.3728L94.2059 98.4814L91.0363 98.3005L92.0929 99.5069L95.3211 99.6275L97.0233 90.5793L100.486 90.7602L100.956 88.1061L99.8993 86.96Z" fill="#864A4A"/>
<path d="M99.8993 86.9604L99.371 89.5542L95.9667 89.3732L94.2058 98.4818L91.0363 98.3009L92.7384 89.1923L89.2754 89.0113L89.8037 86.4175L99.8993 86.9604Z" fill="url(#paint7_linear_581_2142)"/>
<path d="M64.1156 49.9968C65.5095 49.9968 66.6395 48.7102 66.6395 47.1232C66.6395 45.5361 65.5095 44.2495 64.1156 44.2495C62.7217 44.2495 61.5917 45.5361 61.5917 47.1232C61.5917 48.7102 62.7217 49.9968 64.1156 49.9968Z" fill="url(#paint8_linear_581_2142)"/>
<path opacity="0.5" d="M71.1002 123.442C71.1002 125.447 69.6916 127.117 67.872 127.117C66.0524 127.117 64.6438 125.513 64.6438 123.442C64.6438 121.37 66.0524 119.766 67.872 119.766C69.6916 119.766 71.1002 121.437 71.1002 123.442Z" fill="url(#paint9_linear_581_2142)"/>
<path d="M107.374 114.554C107.374 115.289 106.846 115.89 106.2 115.89C105.554 115.89 105.026 115.289 105.026 114.554C105.026 113.819 105.554 113.217 106.2 113.217C106.846 113.217 107.374 113.819 107.374 114.554Z" fill="url(#paint10_linear_581_2142)"/>
<path d="M88.0045 132.998C88.0045 133.6 87.5937 134.134 87.0067 134.134C86.4785 134.134 86.0089 133.667 86.0089 132.998C86.0089 132.33 86.4198 131.862 87.0067 131.862C87.5937 131.862 88.0045 132.397 88.0045 132.998Z" fill="url(#paint11_linear_581_2142)"/>
<path d="M53.1395 75.8597C53.1395 76.4612 52.7287 76.9958 52.1417 76.9958C51.6135 76.9958 51.1439 76.528 51.1439 75.8597C51.1439 75.1914 51.5548 74.7236 52.1417 74.7236C52.67 74.7236 53.1395 75.2583 53.1395 75.8597Z" fill="url(#paint12_linear_581_2142)"/>
<path d="M99.9196 48.2591C99.9196 48.8606 99.5087 49.3952 98.9218 49.3952C98.3935 49.3952 97.924 48.9274 97.924 48.2591C97.924 47.6577 98.3348 47.123 98.9218 47.123C99.5087 47.123 99.9196 47.6577 99.9196 48.2591Z" fill="url(#paint13_linear_581_2142)"/>
<path opacity="0.2" d="M100.448 127.117C101.258 127.117 101.915 126.369 101.915 125.447C101.915 124.524 101.258 123.776 100.448 123.776C99.6376 123.776 98.9806 124.524 98.9806 125.447C98.9806 126.369 99.6376 127.117 100.448 127.117Z" fill="url(#paint14_linear_581_2142)"/>
<path opacity="0.3" d="M117 70.5799C117 71.5155 116.354 72.2506 115.533 72.2506C114.711 72.2506 114.065 71.5155 114.065 70.5799C114.065 69.6443 114.711 68.9092 115.533 68.9092C116.354 68.9092 117 69.6443 117 70.5799Z" fill="url(#paint15_linear_581_2142)"/>
<defs>
<linearGradient id="paint0_linear_581_2142" x1="85.1209" y1="141.954" x2="85.1209" y2="3.70236" gradientUnits="userSpaceOnUse">
<stop stop-color="#D6C0FE"/>
<stop offset="1" stop-color="#D6C0FE" stop-opacity="0"/>
</linearGradient>
<linearGradient id="paint1_linear_581_2142" x1="85.1209" y1="141.954" x2="85.1209" y2="3.70285" gradientUnits="userSpaceOnUse">
<stop stop-color="#D6C0FE"/>
<stop offset="1" stop-color="#D6C0FE" stop-opacity="0"/>
</linearGradient>
<linearGradient id="paint2_linear_581_2142" x1="95.6194" y1="90.4108" x2="79.92" y2="118.76" gradientUnits="userSpaceOnUse">
<stop stop-color="#F9DD68"/>
<stop offset="1" stop-color="#F9A942"/>
</linearGradient>
<linearGradient id="paint3_linear_581_2142" x1="56.7426" y1="92.5501" x2="108.592" y2="92.5501" gradientUnits="userSpaceOnUse">
<stop stop-color="#F9DD68"/>
<stop offset="1" stop-color="#F9A942"/>
</linearGradient>
<linearGradient id="paint4_linear_581_2142" x1="59.733" y1="92.5497" x2="105.601" y2="92.5497" gradientUnits="userSpaceOnUse">
<stop stop-color="#F9DD68"/>
<stop offset="1" stop-color="#F9A942"/>
</linearGradient>
<linearGradient id="paint5_linear_581_2142" x1="68.785" y1="89.7754" x2="95.0204" y2="103.182" gradientUnits="userSpaceOnUse">
<stop stop-color="#A58C26"/>
<stop offset="1" stop-color="#F9A942"/>
</linearGradient>
<linearGradient id="paint6_linear_581_2142" x1="71.1264" y1="85.1932" x2="97.3615" y2="98.5992" gradientUnits="userSpaceOnUse">
<stop stop-color="#A58C26"/>
<stop offset="1" stop-color="#F9A942"/>
</linearGradient>
<linearGradient id="paint7_linear_581_2142" x1="73.4045" y1="80.7354" x2="99.6397" y2="94.1413" gradientUnits="userSpaceOnUse">
<stop stop-color="#A58C26"/>
<stop offset="1" stop-color="#F9A942"/>
</linearGradient>
<linearGradient id="paint8_linear_581_2142" x1="61.6393" y1="47.1295" x2="66.6506" y2="47.1295" gradientUnits="userSpaceOnUse">
<stop stop-color="#F9DD68"/>
<stop offset="1" stop-color="#F9A942"/>
</linearGradient>
<linearGradient id="paint9_linear_581_2142" x1="64.6789" y1="123.433" x2="71.0991" y2="123.433" gradientUnits="userSpaceOnUse">
<stop stop-color="#F9DD68"/>
<stop offset="1" stop-color="#F9A942"/>
</linearGradient>
<linearGradient id="paint10_linear_581_2142" x1="104.955" y1="114.553" x2="107.345" y2="114.553" gradientUnits="userSpaceOnUse">
<stop stop-color="#F9DD68"/>
<stop offset="1" stop-color="#F9A942"/>
</linearGradient>
<linearGradient id="paint11_linear_581_2142" x1="86.0898" y1="132.977" x2="88.0317" y2="132.977" gradientUnits="userSpaceOnUse">
<stop stop-color="#F9DD68"/>
<stop offset="1" stop-color="#F9A942"/>
</linearGradient>
<linearGradient id="paint12_linear_581_2142" x1="51.17" y1="75.8504" x2="53.112" y2="75.8504" gradientUnits="userSpaceOnUse">
<stop stop-color="#F9DD68"/>
<stop offset="1" stop-color="#F9A942"/>
</linearGradient>
<linearGradient id="paint13_linear_581_2142" x1="97.9954" y1="48.2349" x2="99.9375" y2="48.2349" gradientUnits="userSpaceOnUse">
<stop stop-color="#F9DD68"/>
<stop offset="1" stop-color="#F9A942"/>
</linearGradient>
<linearGradient id="paint14_linear_581_2142" x1="98.9666" y1="125.415" x2="101.905" y2="125.415" gradientUnits="userSpaceOnUse">
<stop stop-color="#F9DD68"/>
<stop offset="1" stop-color="#F9A942"/>
</linearGradient>
<linearGradient id="paint15_linear_581_2142" x1="114.073" y1="70.5948" x2="117.011" y2="70.5948" gradientUnits="userSpaceOnUse">
<stop stop-color="#F9DD68"/>
<stop offset="1" stop-color="#F9A942"/>
</linearGradient>
</defs>
</svg>
