<svg width="24" height="24" viewBox="0 0 24 24" fill="none" xmlns="http://www.w3.org/2000/svg">
<g clip-path="url(#clip0_581_2300)">
<path d="M0 12C0 8.8174 1.26428 5.76516 3.51472 3.51472C5.76516 1.26428 8.8174 0 12 0C15.1826 0 18.2348 1.26428 20.4853 3.51472C22.7357 5.76516 24 8.8174 24 12C24 15.1826 22.7357 18.2348 20.4853 20.4853C18.2348 22.7357 15.1826 24 12 24C8.8174 24 5.76516 22.7357 3.51472 20.4853C1.26428 18.2348 0 15.1826 0 12ZM4.56133 9.84C4.56133 9.84667 4.56133 9.85733 4.564 9.86667L4.56667 9.896L4.56933 9.91733L4.57467 9.94933L4.57733 9.968L4.58533 10L4.588 10.016L4.596 10.0467C4.59867 10.052 4.59867 10.06 4.6 10.064C4.60267 10.0747 4.60533 10.0853 4.61067 10.092L4.61867 10.1133L4.628 10.14L4.636 10.1613L4.64667 10.1853L4.656 10.212C4.65867 10.2147 4.66133 10.2253 4.66667 10.228L4.68 10.2547C4.68256 10.2606 4.68617 10.266 4.69067 10.2707L4.70533 10.3C4.70774 10.3049 4.71089 10.3094 4.71467 10.3133L4.73333 10.3427L4.744 10.3587L4.764 10.3853L4.77733 10.4027L4.79467 10.424L4.81333 10.4453L4.82667 10.464L4.864 10.5013L4.90267 10.5373L4.92 10.5533L4.94 10.5707C4.948 10.5787 4.956 10.584 4.964 10.588L4.97867 10.6013L5.00667 10.6227L5.02267 10.632C5.03333 10.636 5.04 10.6453 5.04933 10.6493C5.05467 10.652 5.06 10.6547 5.06533 10.66L5.092 10.676C5.09867 10.6787 5.104 10.6813 5.10933 10.6867L5.13733 10.7C5.14267 10.7 5.15067 10.7027 5.15467 10.708C5.16267 10.7133 5.17333 10.716 5.18133 10.7187L5.20267 10.7293L5.22667 10.7373C5.23467 10.74 5.24533 10.7453 5.25333 10.7467L5.272 10.7547L5.30133 10.764C5.30667 10.7667 5.31467 10.7667 5.31867 10.7693L5.34933 10.7773L5.36667 10.7827L5.4 10.7907L5.41733 10.7933C5.42864 10.7965 5.44028 10.7983 5.452 10.7987L5.47067 10.8C5.48117 10.8023 5.49193 10.8032 5.50267 10.8027L5.52933 10.8053L5.55067 10.808L5.604 10.8107H18.3333C18.6046 10.801 18.8616 10.6864 19.0501 10.491C19.2386 10.2957 19.344 10.0348 19.344 9.76333C19.344 9.49186 19.2386 9.23098 19.0501 9.03562C18.8616 8.84026 18.6046 8.72568 18.3333 8.716H8.13333L8.796 8.04933C8.90309 7.95466 8.98966 7.83904 9.05036 7.70963C9.11105 7.58021 9.1446 7.43973 9.14893 7.29686C9.15325 7.15398 9.12827 7.01173 9.07551 6.87888C9.02276 6.74603 8.94335 6.62539 8.84218 6.5244C8.74101 6.42342 8.62023 6.34423 8.48728 6.29171C8.35434 6.23919 8.21204 6.21446 8.06917 6.21905C7.9263 6.22363 7.78589 6.25743 7.65658 6.31836C7.52727 6.3793 7.41182 6.46607 7.31733 6.57333L4.86667 9.02L4.83067 9.06L4.816 9.076L4.79733 9.09733C4.79033 9.10421 4.78408 9.11181 4.77867 9.12L4.76533 9.136L4.74667 9.16267L4.736 9.17867L4.71733 9.208C4.71467 9.212 4.712 9.21733 4.70667 9.22133L4.69333 9.25067C4.69078 9.2566 4.68716 9.26202 4.68267 9.26667C4.67733 9.276 4.672 9.28267 4.66933 9.29333C4.66667 9.29867 4.664 9.30667 4.65867 9.312C4.65333 9.32 4.652 9.32933 4.64933 9.33867L4.63867 9.36L4.63067 9.38267L4.62133 9.40933L4.61333 9.42933L4.60267 9.45733C4.6 9.46267 4.6 9.47067 4.59867 9.476L4.59067 9.50533C4.588 9.51067 4.588 9.516 4.588 9.52133L4.58 9.55467L4.57733 9.572C4.57429 9.58287 4.5725 9.59406 4.572 9.60533L4.56933 9.62667C4.56667 9.636 4.56667 9.64667 4.56667 9.656L4.564 9.68267L4.56133 9.70933L4.55867 9.76C4.55867 9.776 4.55867 9.79467 4.56133 9.81067C4.55867 9.824 4.56133 9.83067 4.56133 9.83733V9.84133V9.84ZM19.2027 14.8973C19.2092 14.8904 19.215 14.8828 19.22 14.8747L19.2333 14.8587L19.2533 14.832L19.264 14.816C19.268 14.8053 19.2773 14.7973 19.2813 14.788C19.284 14.7825 19.2876 14.7776 19.292 14.7733L19.3067 14.744C19.3092 14.7381 19.3128 14.7326 19.3173 14.728L19.3307 14.7013C19.3321 14.6944 19.3353 14.688 19.34 14.6827C19.3453 14.6747 19.348 14.6653 19.3507 14.656L19.3613 14.6347L19.3693 14.612L19.3773 14.5853L19.3853 14.5653L19.396 14.5387L19.4013 14.5187L19.4093 14.4893C19.412 14.484 19.412 14.4787 19.412 14.4733L19.42 14.44L19.4227 14.4227C19.4257 14.4118 19.4275 14.4006 19.428 14.3893V14.368C19.432 14.3587 19.432 14.348 19.432 14.3387L19.4347 14.312L19.4373 14.2853L19.44 14.2347C19.44 14.2187 19.44 14.2 19.4373 14.184L19.4347 14.1573C19.4347 14.152 19.4347 14.1413 19.432 14.1333L19.4293 14.1027L19.428 14.0827L19.4227 14.0493L19.42 14.0307L19.412 13.9987C19.4093 13.9933 19.4093 13.988 19.4093 13.9827L19.4013 13.952L19.396 13.9347C19.394 13.9248 19.3904 13.9154 19.3853 13.9067L19.3773 13.8853L19.3693 13.8587L19.3613 13.8373L19.3507 13.8133L19.34 13.7867C19.3373 13.784 19.3347 13.7733 19.3293 13.7707L19.316 13.744C19.3138 13.7382 19.3107 13.7327 19.3067 13.728L19.292 13.6987L19.2813 13.6853C19.276 13.6733 19.268 13.6653 19.264 13.656L19.2533 13.64L19.2333 13.6133L19.22 13.596L19.2027 13.5747L19.184 13.5533L19.168 13.5347C19.1547 13.5213 19.1467 13.508 19.1333 13.4973L19.0933 13.4613L19.0773 13.4467L19.056 13.428C19.0491 13.4215 19.0415 13.4157 19.0333 13.4107L19.0187 13.3973L18.9907 13.376L18.9747 13.3667C18.964 13.3627 18.956 13.3533 18.9467 13.3493C18.9412 13.3466 18.9362 13.343 18.932 13.3387L18.9027 13.3227C18.8973 13.32 18.892 13.3173 18.8867 13.312L18.86 13.2987C18.8532 13.2977 18.8468 13.2949 18.8413 13.2907C18.8333 13.2853 18.824 13.2827 18.8147 13.28L18.7933 13.2693L18.7707 13.2613C18.7627 13.2587 18.752 13.2533 18.744 13.252L18.724 13.244L18.6973 13.2347L18.6773 13.2293L18.648 13.2213L18.6293 13.216L18.5973 13.208L18.5787 13.2053C18.5678 13.2023 18.5566 13.2005 18.5453 13.2L18.5253 13.1987C18.5147 13.196 18.504 13.196 18.4947 13.196L18.468 13.1933L18.4467 13.1907L18.3933 13.188H5.66C5.51932 13.183 5.37907 13.2064 5.24762 13.2567C5.11617 13.3071 4.99621 13.3834 4.89491 13.4812C4.79361 13.5789 4.71304 13.6961 4.65801 13.8257C4.60299 13.9552 4.57462 14.0946 4.57463 14.2353C4.57462 14.3761 4.60299 14.5154 4.65801 14.645C4.71304 14.7746 4.79361 14.8917 4.89491 14.9895C4.99621 15.0872 5.11617 15.1636 5.24762 15.2139C5.37907 15.2643 5.51932 15.2877 5.66 15.2827H15.864L15.2 15.9493C15.0941 16.0443 15.0087 16.1599 14.949 16.289C14.8892 16.4182 14.8565 16.5581 14.8526 16.7003C14.8488 16.8425 14.874 16.984 14.9267 17.1162C14.9794 17.2483 15.0585 17.3683 15.1592 17.4689C15.2598 17.5694 15.3799 17.6484 15.5121 17.701C15.6443 17.7536 15.7858 17.7787 15.928 17.7747C16.0702 17.7708 16.2101 17.7379 16.3392 17.678C16.4682 17.6182 16.5838 17.5327 16.6787 17.4267L19.1307 14.9773L19.1653 14.9373L19.1813 14.9213L19.2027 14.8973Z" fill="url(#paint0_linear_581_2300)"/>
</g>
<defs>
<linearGradient id="paint0_linear_581_2300" x1="-0.694981" y1="14.4" x2="20.1398" y2="28.7996" gradientUnits="userSpaceOnUse">
<stop stop-color="#E025CE"/>
<stop offset="1" stop-color="#4AED52"/>
</linearGradient>
<clipPath id="clip0_581_2300">
<rect width="24" height="24" fill="white"/>
</clipPath>
</defs>
</svg>
