<svg width="17" height="16" viewBox="0 0 17 16" fill="none" xmlns="http://www.w3.org/2000/svg">
<g clip-path="url(#clip0_282_3900)">
<path d="M10.6121 4.60103H6.71692C6.53133 4.58984 6.34548 4.61815 6.17164 4.6841C5.9978 4.75005 5.83993 4.85213 5.70846 4.9836C5.57699 5.11507 5.47491 5.27293 5.40897 5.44677C5.34302 5.62061 5.31471 5.80646 5.3259 5.99205V10.0263C5.3259 10.7219 5.88247 11.2785 6.71692 11.2785H10.7512C11.4468 11.2785 12.0034 10.7219 12.0034 9.88749V5.99232C12.0146 5.80668 11.9863 5.62078 11.9204 5.44689C11.8544 5.273 11.7523 5.11508 11.6208 4.98358C11.4893 4.85207 11.3314 4.74998 11.1575 4.68403C10.9836 4.61809 10.7977 4.5898 10.6121 4.60103ZM10.3339 6.27047V9.74814H6.9948V6.27047H10.3334H10.3339Z" fill="#3CCBF3"/>
<path d="M15.8759 8.64457C15.9704 8.6464 16.0642 8.62937 16.152 8.59449C16.2398 8.55961 16.3198 8.50757 16.3872 8.44142C16.4547 8.37527 16.5082 8.29634 16.5448 8.20923C16.5814 8.12213 16.6002 8.02861 16.6002 7.93414C16.6002 7.83967 16.5814 7.74615 16.5448 7.65904C16.5082 7.57194 16.4547 7.49301 16.3872 7.42686C16.3198 7.3607 16.2398 7.30867 16.152 7.27379C16.0642 7.23891 15.9704 7.22188 15.8759 7.22371H13.9813V6.03971H15.8759C15.9704 6.04154 16.0642 6.02451 16.152 5.98963C16.2398 5.95475 16.3198 5.90271 16.3872 5.83656C16.4547 5.77041 16.5082 5.69148 16.5448 5.60437C16.5814 5.51727 16.6002 5.42375 16.6002 5.32928C16.6002 5.23481 16.5814 5.14129 16.5448 5.05418C16.5082 4.96708 16.4547 4.88815 16.3872 4.822C16.3198 4.75584 16.2398 4.70381 16.152 4.66893C16.0642 4.63405 15.9704 4.61702 15.8759 4.61885H13.9813V4.50056C13.9836 4.23555 13.9331 3.97273 13.8328 3.72744C13.7324 3.48216 13.5842 3.25931 13.3969 3.07191C13.2095 2.88452 12.9866 2.73632 12.7413 2.63597C12.496 2.53562 12.2332 2.48512 11.9682 2.48743H11.8499V0.71116C11.8374 0.526833 11.7585 0.353284 11.6279 0.222645C11.4972 0.0920049 11.3237 0.0131216 11.1394 0.000598336C10.7842 0.000598336 10.5474 0.237452 10.5474 0.71116V2.60573H9.36308V0.71116C9.35056 0.526833 9.27168 0.353284 9.14104 0.222645C9.0104 0.0920049 8.83685 0.0131216 8.65252 0.000598336C8.55815 -0.00335539 8.46399 0.0123185 8.37599 0.0466286C8.28799 0.0809387 8.20807 0.133138 8.14128 0.199925C8.0745 0.266712 8.0223 0.346633 7.98799 0.434631C7.95368 0.52263 7.938 0.616792 7.94196 0.71116V2.60573H6.75795V0.71116C6.75435 0.525125 6.67792 0.347926 6.54508 0.217635C6.41224 0.0873435 6.2336 0.0143571 6.04753 0.0143571C5.86146 0.0143571 5.68281 0.0873435 5.54997 0.217635C5.41713 0.347926 5.3407 0.525125 5.3371 0.71116V2.60573H5.2188C4.95379 2.60342 4.69098 2.65391 4.44569 2.75426C4.2004 2.85461 3.97756 3.00281 3.79016 3.19021C3.60276 3.37761 3.45456 3.60045 3.35421 3.84574C3.25386 4.09102 3.20337 4.35384 3.20568 4.61885V4.73714H1.42967C1.24364 4.74075 1.06644 4.81718 0.936147 4.95002C0.805856 5.08286 0.732869 5.2615 0.732869 5.44757C0.732869 5.63364 0.805856 5.81229 0.936147 5.94513C1.06644 6.07797 1.24364 6.1544 1.42967 6.158H3.32424V7.34254H1.42967C1.34189 7.31547 1.24874 7.31074 1.15867 7.32879C1.0686 7.34684 0.984459 7.38708 0.913884 7.44588C0.843308 7.50468 0.788529 7.58017 0.754516 7.66551C0.720504 7.75084 0.708334 7.84331 0.719111 7.93454C0.731634 8.11887 0.810518 8.29241 0.941157 8.42305C1.0718 8.55369 1.24535 8.63258 1.42967 8.6451H3.32424V9.8291H1.42967C1.33522 9.82728 1.24135 9.8443 1.15356 9.87918C1.06576 9.91406 0.985804 9.9661 0.91836 10.0322C0.850915 10.0984 0.797339 10.1773 0.760765 10.2644C0.724191 10.3515 0.705353 10.4451 0.705353 10.5395C0.705353 10.634 0.724191 10.7275 0.760765 10.8146C0.797339 10.9017 0.850915 10.9807 0.91836 11.0468C0.985804 11.113 1.06576 11.165 1.15356 11.1999C1.24135 11.2348 1.33522 11.2518 1.42967 11.25H3.32424V11.3683C3.32193 11.6333 3.37242 11.8961 3.47277 12.1414C3.57312 12.3867 3.72132 12.6095 3.90872 12.7969C4.09612 12.9843 4.31896 13.1325 4.56425 13.2328C4.80954 13.3332 5.07235 13.3837 5.33736 13.3814H5.45566V15.2759C5.45926 15.462 5.53569 15.6392 5.66853 15.7695C5.80137 15.8998 5.98002 15.9727 6.16609 15.9727C6.35216 15.9727 6.5308 15.8998 6.66364 15.7695C6.79648 15.6392 6.87291 15.462 6.87651 15.2759V13.3811H8.06105V15.2757C8.05922 15.3701 8.07624 15.464 8.11113 15.5518C8.14601 15.6396 8.19804 15.7195 8.26419 15.787C8.33035 15.8544 8.40928 15.908 8.49638 15.9446C8.58349 15.9812 8.67701 16 8.77148 16C8.86595 16 8.95947 15.9812 9.04657 15.9446C9.13368 15.908 9.21261 15.8544 9.27876 15.787C9.34491 15.7195 9.39695 15.6396 9.43183 15.5518C9.46671 15.464 9.48374 15.3701 9.48191 15.2757V13.3811H10.6659V15.2757C10.6641 15.3701 10.6811 15.464 10.716 15.5518C10.7509 15.6396 10.8029 15.7195 10.8691 15.787C10.9352 15.8544 11.0141 15.908 11.1012 15.9446C11.1883 15.9812 11.2819 16 11.3763 16C11.4708 16 11.5643 15.9812 11.6514 15.9446C11.7385 15.908 11.8175 15.8544 11.8836 15.787C11.9498 15.7195 12.0018 15.6396 12.0367 15.5518C12.0716 15.464 12.0886 15.3701 12.0868 15.2757V13.3811H12.2051C13.2708 13.3811 13.9518 12.5523 13.9518 11.368V11.1311H15.8463C16.0324 11.1275 16.2096 11.0511 16.3399 10.9183C16.4701 10.7854 16.5431 10.6068 16.5431 10.4207C16.5431 10.2346 16.4701 10.056 16.3399 9.92315C16.2096 9.79031 16.0324 9.71388 15.8463 9.71028H13.9813V8.64457H15.8759ZM12.6788 4.50002V11.3683C12.6835 11.4472 12.6714 11.5263 12.6434 11.6003C12.6153 11.6743 12.5718 11.7414 12.5159 11.7974C12.46 11.8533 12.3928 11.8968 12.3188 11.9249C12.2448 11.9529 12.1657 11.965 12.0868 11.9603H5.2188C5.13982 11.965 5.06074 11.9529 4.98677 11.9249C4.91279 11.8968 4.84562 11.8533 4.78967 11.7974C4.73372 11.7414 4.69028 11.6743 4.6622 11.6003C4.63413 11.5263 4.62206 11.4472 4.6268 11.3683V4.50029C4.62206 4.42131 4.63413 4.34223 4.6622 4.26825C4.69028 4.19428 4.73372 4.1271 4.78967 4.07116C4.84562 4.01521 4.91279 3.97177 4.98677 3.94369C5.06074 3.91562 5.13982 3.90355 5.2188 3.90829H12.0868C12.1657 3.90355 12.2448 3.91562 12.3188 3.94369C12.3928 3.97177 12.46 4.01521 12.5159 4.07116C12.5718 4.1271 12.6153 4.19428 12.6434 4.26825C12.6714 4.34223 12.6835 4.42131 12.6788 4.50029V4.50002Z" fill="#3CCBF3"/>
</g>
<defs>
<clipPath id="clip0_282_3900">
<rect width="16" height="16" fill="white" transform="translate(0.666656)"/>
</clipPath>
</defs>
</svg>
