<svg width="24" height="25" viewBox="0 0 24 25" fill="none" xmlns="http://www.w3.org/2000/svg">
<path d="M7.52069 22.8374L7.38629 22.7574L7.52229 22.8374H7.52069ZM7.35109 22.735C7.30631 22.7086 7.26203 22.6814 7.21829 22.6534L7.35109 22.735ZM6.85189 22.4102L6.72549 22.3174C6.76709 22.3494 6.81029 22.3814 6.85349 22.4102H6.85189ZM6.53189 22.1734L6.41029 22.0774L6.53349 22.1734H6.53189ZM12.8247 7.04224L12.9543 7.06464L12.8263 7.04224H12.8247ZM10.1623 23.791L10.0023 23.759C10.0551 23.7734 10.1095 23.7814 10.1623 23.791ZM9.56708 23.6614C9.51414 23.6475 9.46134 23.6331 9.40868 23.6182L9.56708 23.6614ZM11.9847 6.96064L12.0935 6.96704L11.9847 6.96224V6.96064ZM9.37028 23.6102C9.31838 23.5947 9.26664 23.5787 9.21508 23.5622C9.26628 23.5814 9.31908 23.5942 9.37028 23.6102ZM13.1975 7.10624L13.3415 7.13664L13.1975 7.10784V7.10624ZM3.8599 18.615L3.8087 18.479L3.8599 18.6134V18.615ZM12.6407 7.01664L12.7447 7.03264L12.6407 7.01504V7.01664ZM3.4919 17.439C3.48083 17.3922 3.47016 17.3452 3.4599 17.2982C3.4679 17.3462 3.4807 17.3926 3.4919 17.439ZM3.4039 17.031L3.3767 16.8934L3.4023 17.0326L3.4039 17.031ZM3.2711 15.9702C3.2711 15.9286 3.2663 15.887 3.2647 15.8454L3.2711 15.9702ZM13.6391 7.20544L13.7991 7.25024C13.7454 7.23651 13.6921 7.22157 13.6391 7.20544ZM5.31109 21.0086L5.21669 20.8934L5.30949 21.0086H5.31109ZM5.65349 21.3846L5.53989 21.2646L5.65189 21.3846H5.65349ZM14.2855 7.38464L13.1975 13.0854L12.1975 11.0262L13.2151 13.1206L15.4903 13.4566C16.2535 13.5686 16.4359 14.0918 15.8711 14.6518L14.2263 16.2822L14.6135 18.5846C14.7447 19.3574 14.3095 19.6966 13.6135 19.3238L11.5783 18.2358L12.1575 18.5462L11.1399 23.8806C11.2855 23.887 11.4327 23.8918 11.5783 23.8918C16.1895 23.8918 19.927 20.0934 19.927 15.4102C19.927 11.687 17.5687 8.52543 14.2855 7.38304V7.38464ZM4.4903 19.8742L4.4167 19.7526L4.4903 19.8758V19.8742ZM4.8199 20.3766L4.7367 20.2598L4.8199 20.3782V20.3766ZM4.7063 20.2134L4.6247 20.0934L4.7047 20.2134H4.7063ZM3.3351 16.615C3.32877 16.5687 3.3229 16.5223 3.3175 16.4758L3.3351 16.615Z" fill="#868686"/>
<path d="M17.6999 7.75272L20.0775 2.88394C20.1453 2.79565 20.187 2.69006 20.1977 2.57924C20.2083 2.46841 20.1876 2.35682 20.1379 2.2572C20.0882 2.15758 20.0114 2.07396 19.9164 2.01588C19.8215 1.9578 19.712 1.9276 19.6007 1.92874H15.5239L14.7319 6.07273C15.7271 6.39273 16.8407 6.91273 17.6999 7.75272Z" fill="#868686"/>
<path d="M11.1207 5.57672L9.5287 2.38953C9.50011 2.2598 9.42837 2.14359 9.32521 2.0599C9.22204 1.9762 9.09354 1.92996 8.9607 1.92873H3.79912C3.68806 1.92783 3.57898 1.95809 3.48427 2.0161C3.38956 2.0741 3.31302 2.15751 3.26335 2.25684C3.21368 2.35618 3.19288 2.46746 3.2033 2.57803C3.21373 2.6886 3.25496 2.79403 3.32232 2.88233L5.69672 7.75431C7.71271 5.78632 11.1191 5.57832 11.1191 5.57832L11.1207 5.57672ZM12.1767 5.57672H12.2023L12.2199 5.57832H12.2247L12.2487 5.57992C13.0551 5.65992 13.8519 5.82472 14.6231 6.07112L15.4151 1.92873H14.3303C14.1979 1.93089 14.07 1.9775 13.9673 2.06107C13.8646 2.14464 13.7929 2.26033 13.7639 2.38953L12.1719 5.57672H12.1767ZM11.6871 18.1271L9.6535 19.2151C8.9703 19.5799 8.51911 19.2631 8.65191 18.4759L9.0407 16.1735L7.39431 14.5447C6.84231 13.9959 6.99911 13.4631 7.77671 13.3495L10.0519 13.0135L11.0695 10.9175C11.4119 10.2151 11.9591 10.2023 12.3063 10.9175L13.3079 12.9783L14.3959 7.27431C14.3565 7.26063 14.3171 7.2473 14.2775 7.23431L14.2199 7.21511L14.1079 7.18151L14.0439 7.16071C14.0067 7.14939 13.9694 7.13872 13.9319 7.12871L13.8647 7.11111L13.7527 7.07911C13.6644 7.05666 13.5759 7.03532 13.4871 7.01511L13.4039 6.99911L13.3063 6.97831L13.2151 6.96231L13.1191 6.94311L13.0199 6.92711L12.9319 6.91271L12.8119 6.89671L12.7431 6.88711C12.6808 6.87896 12.6184 6.87149 12.5559 6.86471L12.4919 6.85831L12.3607 6.84711L12.2855 6.84071C12.2439 6.83765 12.2023 6.83498 12.1607 6.83271L12.0855 6.82951C12.0407 6.82759 11.9959 6.82599 11.9511 6.82471L11.8871 6.82151C11.8215 6.82034 11.7559 6.8198 11.6903 6.81991C7.08071 6.81991 3.34152 10.6167 3.34152 15.3015L3.34312 15.5175L3.34632 15.5879L3.35112 15.7319L3.35592 15.8167L3.36552 15.9447C3.36552 15.9767 3.37032 16.0039 3.37192 16.0343L3.38312 16.1543L3.39272 16.2487L3.40552 16.3655L3.41832 16.4615L3.43432 16.5735L3.45032 16.6695L3.46632 16.7799L3.48552 16.8759C3.49749 16.9439 3.51083 17.0116 3.52552 17.0791L3.54792 17.1863L3.57032 17.2823L3.59592 17.3879L3.61992 17.4839L3.64872 17.5879L3.67432 17.6839L3.70632 17.7863L3.73512 17.8823L3.76712 17.9815C3.77672 18.0151 3.78792 18.0455 3.79912 18.0759L3.83272 18.1751L3.86472 18.2679L3.90312 18.3671L3.93832 18.4583L3.97832 18.5543L4.01512 18.6455L4.05672 18.7415L4.09672 18.8311L4.13992 18.9271L4.18152 19.0151L4.22792 19.1079L4.27112 19.1959L4.31912 19.2871L4.36552 19.3751L4.41352 19.4647L4.46152 19.5511C4.49569 19.6087 4.52982 19.6663 4.56392 19.7239L4.61672 19.8103L4.66952 19.8951L4.72392 19.9799L4.77832 20.0615L4.83592 20.1447C4.87325 20.1998 4.91166 20.2542 4.95112 20.3079L5.00872 20.3879L5.06792 20.4679L5.12872 20.5479L5.19112 20.6247C5.21192 20.6503 5.23112 20.6775 5.25512 20.7047L5.31912 20.7783L5.38152 20.8583L5.44232 20.9271C5.49992 20.9927 5.55752 21.0583 5.61832 21.1223L5.64392 21.1511L5.72231 21.2311L5.78151 21.2951L5.85831 21.3703L5.92231 21.4343L6.00071 21.5079L6.06471 21.5719L6.14471 21.6439L6.21351 21.7047L6.29351 21.7751L6.36391 21.8343L6.44391 21.9031L6.51591 21.9607L6.60071 22.0263L6.67111 22.0823L6.75591 22.1463L6.82951 22.2007L6.91591 22.2647L6.99111 22.3175L7.07911 22.3767C7.13399 22.4138 7.18947 22.4501 7.24551 22.4855L7.32391 22.5351L7.41511 22.5911L7.49351 22.6391L7.58631 22.6919L7.66631 22.7383L7.75911 22.7895C7.78617 22.8041 7.81337 22.8185 7.84071 22.8327L7.93671 22.8823L8.01831 22.9239L8.11431 22.9719L8.19751 23.0103C8.22951 23.0263 8.26151 23.0423 8.29511 23.0551L8.37991 23.0935L8.47911 23.1367L8.56391 23.1719L8.6647 23.2119L8.7511 23.2439L8.8519 23.2823L8.9383 23.3143L9.0423 23.3495L9.1303 23.3783L9.2343 23.4135L9.3223 23.4391L9.4295 23.4711L9.5175 23.4951L9.6247 23.5239L9.7143 23.5463L9.8231 23.5719L9.9111 23.5927L10.0231 23.6167L10.1111 23.6327L10.2231 23.6551L10.3111 23.6711L10.4263 23.6887L10.5127 23.7015L10.6311 23.7175L10.7079 23.7271C10.8599 23.7431 11.0119 23.7591 11.1655 23.7687L11.2471 23.7735L12.2647 18.4391L11.6887 18.1271H11.6871Z" fill="#BABABA"/>
<path d="M11.028 10.6568L10.0104 12.7512L7.73525 13.0872C6.95765 13.2024 6.80085 13.7352 7.35445 14.2824L9.00085 15.9128L8.61205 18.2136C8.47925 19.0024 8.93045 19.3176 9.61204 18.9528L11.6472 17.8648L13.6808 18.9528C14.3784 19.3256 14.812 18.9864 14.6824 18.2136L14.2936 15.9128L15.94 14.2808C16.5032 13.724 16.3208 13.1992 15.5576 13.0872L13.2824 12.7512L12.2664 10.6568C11.9176 9.94003 11.3704 9.95283 11.028 10.6568Z" fill="white"/>
</svg>
